<svg height="512" viewBox="0 0 64 64" width="512" xmlns="http://www.w3.org/2000/svg"><g id="Action_camera" data-name="Action camera"><path d="m5 3a2 2 0 0 0 -2 2v6a2 2 0 0 0 2 2h2v-10z" fill="#ffc477"/><path d="m17 3h-10v10h3 4 3v-2-6z" fill="#2488ff"/><path d="m55 23v8a2.006 2.006 0 0 1 -2 2h-8a2.006 2.006 0 0 1 -2-2v-8z" fill="#2488ff"/><path d="m27 27a2 2 0 0 1 -2-2v-20a2 2 0 0 0 -4 0v20a6 6 0 0 0 6 6h16v-4z" fill="#d1e7f8"/><path d="m10 38a6 6 0 0 0 6 6h7v-4h-7a2 2 0 0 1 -2-2v-25h-4z" fill="#d1e7f8"/><rect fill="#2488ff" height="12" rx="2" width="14" x="23" y="36"/><g fill="#ffc477"><circle cx="30" cy="42" r="2"/><path d="m17 5h4v6h-4z"/><circle cx="49" cy="28" r="2"/></g><path d="m61 5v16a2.006 2.006 0 0 1 -2 2h-20v-20h20a2.006 2.006 0 0 1 2 2z" fill="#d1e7f8"/><path d="m51 7a6 6 0 1 0 6 6 6 6 0 0 0 -6-6zm0 8a2 2 0 1 1 2-2 2 2 0 0 1 -2 2z" fill="#ff3051"/><path d="m33 3a2 2 0 0 0 -2 2v16a2 2 0 0 0 2 2h6v-20z" fill="#6d6e71"/><circle cx="51" cy="13" fill="#58595b" r="2"/><path d="m26 48h8v14h-8z" fill="#6d6e71"/><path d="m26 48h8v2h-8z" fill="#58595b"/><path d="m43 23h12v2h-12z" fill="#006df0"/><path d="m10 13h4v2h-4z" fill="#006df0"/><path d="m39 3h2v20h-2z" fill="#9bc9ff"/><path d="m30 45a3 3 0 1 0 -3-3 3 3 0 0 0 3 3zm0-4a1 1 0 1 1 -1 1 1 1 0 0 1 1-1z"/><path d="m49 31a3 3 0 1 0 -3-3 3 3 0 0 0 3 3zm0-4a1 1 0 1 1 -1 1 1 1 0 0 1 1-1z"/><path d="m59 2h-26a3 3 0 0 0 -3 3v16a3 3 0 0 0 3 3h9v2h-15a1 1 0 0 1 -1-1v-20a2.993 2.993 0 0 0 -5.816-1h-2.184v-1a1 1 0 0 0 -1-1h-12a3 3 0 0 0 -3 3v6a3 3 0 0 0 3 3h4v24a7.008 7.008 0 0 0 7 7h6v1a3 3 0 0 0 3 3v13h2v-13h6v13h2v-13a3 3 0 0 0 3-3v-8a3 3 0 0 0 -3-3h-10a3 3 0 0 0 -3 3v1h-6a1 1 0 0 1 -1-1v-24h2a1 1 0 0 0 1-1v-1h2v13a7.008 7.008 0 0 0 7 7h15.184a3 3 0 0 0 2.816 2h8a3 3 0 0 0 3-3v-7h3a3 3 0 0 0 3-3v-16a3 3 0 0 0 -3-3zm-55 9v-6a1 1 0 0 1 1-1h1v8h-1a1 1 0 0 1 -1-1zm28 10v-16a1 1 0 0 1 1-1h5v18h-5a1 1 0 0 1 -1-1zm-8 17a1 1 0 0 1 1-1h10a1 1 0 0 1 1 1v8a1 1 0 0 1 -1 1h-10a1 1 0 0 1 -1-1zm-8 3h6v2h-6a5.006 5.006 0 0 1 -5-5v-24h2v24a3 3 0 0 0 3 3zm-8-29v-8h8v8zm10-2v-4h2v4zm4 15v-20a1 1 0 0 1 2 0v20a3 3 0 0 0 3 3h15v2h-15a5.006 5.006 0 0 1 -5-5zm32 6a1 1 0 0 1 -1 1h-8a1 1 0 0 1 -1-1v-7h10zm6-10a1 1 0 0 1 -1 1h-19v-18h19a1 1 0 0 1 1 1z"/><path d="m51 6a7 7 0 1 0 7 7 7.008 7.008 0 0 0 -7-7zm0 12a5 5 0 1 1 5-5 5.006 5.006 0 0 1 -5 5z"/><path d="m51 10a3 3 0 1 0 3 3 3 3 0 0 0 -3-3zm0 4a1 1 0 1 1 1-1 1 1 0 0 1 -1 1z"/><path d="m42 6h2v2h-2z"/></g></svg>