<?xml version="1.0" encoding="iso-8859-1"?>
<!-- Generator: Adobe Illustrator 19.0.0, SVG Export Plug-In . SVG Version: 6.00 Build 0)  -->
<svg version="1.1" id="Capa_1" xmlns="http://www.w3.org/2000/svg" xmlns:xlink="http://www.w3.org/1999/xlink" x="0px" y="0px"
	 viewBox="0 0 512 512" style="enable-background:new 0 0 512 512;" xml:space="preserve">
<circle style="fill:#D0E6EF;" cx="242.381" cy="269.533" r="128.201"/>
<path style="fill:#FEB756;" d="M242.381,41.177c-126.119,0-228.359,102.24-228.359,228.359s102.24,228.359,228.359,228.359
	s228.359-102.24,228.359-228.359S368.5,41.177,242.381,41.177z M242.381,397.736c-70.804,0-128.201-57.398-128.201-128.201
	s57.397-128.201,128.201-128.201s128.201,57.398,128.201,128.201S313.184,397.736,242.381,397.736z"/>
<path style="fill:#8CCEEA;" d="M374.646,269.535h105.765c12.709,0,22.632-10.93,21.487-23.587
	c-11.3-125.013-110.892-224.552-235.93-235.763c-12.653-1.135-23.574,8.785-23.574,21.489v105.752
	c0,10.555,7.633,19.595,18.053,21.276c47.596,7.681,85.188,45.236,92.927,92.813C355.068,261.92,364.103,269.535,374.646,269.535z"
	/>
<g>
	<circle style="fill:#F25353;" cx="314.424" cy="97.824" r="36.048"/>
	<circle style="fill:#F25353;" cx="414.281" cy="199.683" r="36.048"/>
</g>
<circle style="fill:#F4F4F4;" cx="242.381" cy="269.533" r="52.082"/>
<path d="M180.283,269.535c0,34.241,27.857,62.098,62.098,62.098s62.098-27.857,62.098-62.098s-27.857-62.098-62.098-62.098
	S180.283,235.295,180.283,269.535z M242.381,227.469c23.195,0,42.066,18.871,42.066,42.066s-18.871,42.066-42.066,42.066
	s-42.066-18.871-42.066-42.066S219.185,227.469,242.381,227.469z"/>
<path d="M104.164,269.535v0.367c0,5.531,4.485,10.016,10.016,10.016s10.016-4.485,10.016-10.016v-0.367
	c0-5.531-4.485-10.016-10.016-10.016S104.164,264.004,104.164,269.535z"/>
<path d="M112.542,222.042c-1.9,5.195,0.77,10.946,5.964,12.847c1.137,0.415,2.299,0.612,3.441,0.612
	c4.084,0,7.921-2.519,9.408-6.576c12.924-35.325,42.198-62.611,78.308-72.99c5.316-1.528,8.387-7.076,6.86-12.393
	c-1.528-5.316-7.074-8.385-12.393-6.86c-6.059,1.742-11.946,3.903-17.643,6.427c0.233-0.828,0.374-1.698,0.385-2.599l0.015-0.912
	c0.113-5.53-4.278-10.106-9.808-10.219c-0.07-0.001-0.14-0.002-0.209-0.002c-5.436,0-9.898,4.35-10.01,9.81l-0.017,1.089
	c-0.051,4.347,2.68,8.069,6.534,9.499C145.581,165.835,123.776,191.337,112.542,222.042z"/>
<path d="M511.872,245.047c-4.233-46.837-20.751-91.963-47.768-130.503c-3.176-4.528-9.422-5.627-13.951-2.452
	c-4.529,3.176-5.627,9.421-2.452,13.951c25.012,35.677,40.303,77.452,44.221,120.808c0.298,3.306-0.766,6.472-2.998,8.914
	c-2.211,2.422-5.236,3.755-8.514,3.755H374.646c-5.691,0-10.479-4.043-11.385-9.614c-8.469-52.063-49.146-92.69-101.219-101.093
	c-5.581-0.9-9.632-5.691-9.632-11.388V31.673c0-3.276,1.332-6.299,3.751-8.51c2.442-2.233,5.616-3.297,8.912-3.002
	c45.278,4.06,88.612,20.431,125.318,47.345c4.461,3.271,10.729,2.307,14-2.154c3.271-4.461,2.307-10.729-2.154-14
	C362.587,22.28,315.776,4.595,266.863,0.209c-8.845-0.789-17.674,2.184-24.22,8.169c-5.454,4.987-8.953,11.739-9.958,18.983
	C171.582,29.75,114.479,54.66,70.991,98.146C25.213,143.926,0,204.793,0,269.535s25.213,125.609,70.991,171.389
	c45.78,45.779,106.646,70.991,171.389,70.991c110.466,0,206.954-74.59,234.639-181.389c1.388-5.355-1.827-10.821-7.181-12.208
	c-5.355-1.392-10.822,1.827-12.208,7.181c-2.698,10.41-6.117,20.483-10.181,30.179c-1.745-3.613-5.567-5.974-9.802-5.633
	c-5.515,0.437-9.63,5.261-9.194,10.775l0.067,0.912c0.371,5.279,4.768,9.315,9.982,9.315c0.234,0,0.473-0.008,0.711-0.024
	c0.403-0.028,0.794-0.086,1.182-0.16c-37.359,73.076-113.188,121.02-198.013,121.02c-72.082,0-136.252-34.487-176.906-87.818
	c0.164,0.008,0.33,0.027,0.494,0.027c3.744,0,7.336-2.108,9.051-5.715c2.376-4.995,0.253-10.97-4.741-13.347l-0.81-0.392
	c-4.971-2.428-10.967-0.368-13.396,4.603c-0.147,0.301-0.276,0.608-0.392,0.915c-22.541-34.768-35.65-76.192-35.65-120.623
	c0-119.25,94.368-216.863,212.347-222.113v90.003c0,15.582,11.133,28.689,26.474,31.163c43.542,7.027,77.556,40.998,84.638,84.533
	c1.671,10.275,8.123,18.653,16.887,23.058c-3.458,62.087-55.057,111.54-117.995,111.54c-48.672,0-91.777-29.205-109.814-74.404
	c-2.051-5.138-7.878-7.638-13.014-5.591c-5.138,2.05-7.641,7.877-5.591,13.014c10.13,25.385,27.416,47.038,49.989,62.619
	c23.118,15.958,50.239,24.392,78.43,24.392c72.845,0,132.702-56.646,137.851-128.201h17.718c-1.144,0.571-2.197,1.369-3.087,2.395
	c-3.626,4.178-3.178,10.504,1.001,14.128c0.22,0.19,0.439,0.384,0.656,0.577c1.909,1.698,4.286,2.533,6.654,2.533
	c2.76,0,5.508-1.134,7.487-3.358c3.677-4.133,3.308-10.463-0.824-14.14c-0.279-0.248-0.562-0.496-0.844-0.741
	c-0.654-0.568-1.366-1.025-2.107-1.394h73.525c8.844,0,17.338-3.745,23.304-10.274C509.698,262.726,512.672,253.895,511.872,245.047
	z"/>
<path d="M423.376,96.429c1.968,2.059,4.602,3.095,7.24,3.095c2.488,0,4.981-0.921,6.92-2.775c3.998-3.823,4.142-10.162,0.318-14.161
	l-0.294-0.306c-3.845-3.977-10.185-4.084-14.162-0.239c-3.977,3.844-4.084,10.185-0.239,14.162L423.376,96.429z"/>
<path d="M296.796,55.269c-11.368,4.708-20.221,13.561-24.93,24.929c-4.707,11.368-4.707,23.889,0.001,35.254
	c4.708,11.368,13.562,20.221,24.929,24.93c5.685,2.355,11.655,3.531,17.629,3.531c5.97,0,11.944-1.178,17.627-3.531
	c11.368-4.708,20.221-13.562,24.93-24.929c9.718-23.466-1.464-50.464-24.929-60.186C320.684,50.559,308.163,50.56,296.796,55.269z
	 M338.473,107.786c-2.66,6.424-7.663,11.427-14.087,14.088c-6.424,2.661-13.5,2.661-19.923-0.001
	c-6.424-2.66-11.428-7.663-14.088-14.087c-2.661-6.424-2.661-13.5,0-19.923c2.66-6.424,7.663-11.428,14.087-14.088
	c3.213-1.331,6.587-1.996,9.963-1.996c3.374,0,6.75,0.665,9.961,1.995C337.646,79.268,343.966,94.526,338.473,107.786z"/>
<path d="M371.72,217.309c7.341,17.72,24.532,28.436,42.618,28.436c5.863,0,11.823-1.128,17.568-3.507
	c11.367-4.708,20.22-13.562,24.928-24.93c4.708-11.368,4.708-23.888,0.001-35.254c-4.708-11.368-13.562-20.22-24.93-24.929
	c-11.366-4.709-23.887-4.708-35.255-0.001C373.184,166.844,362,193.842,371.72,217.309z M414.276,173.635
	c3.375,0,6.751,0.665,9.963,1.996c6.424,2.66,11.427,7.664,14.088,14.088c2.66,6.423,2.66,13.499-0.001,19.923
	c-2.66,6.424-7.663,11.427-14.087,14.088v-0.001c-13.261,5.498-28.52-0.826-34.011-14.087c-5.493-13.261,0.826-28.52,14.087-34.011
	C407.527,174.3,410.901,173.635,414.276,173.635z"/>
<path d="M333.652,279.488c2.564,0,5.126-0.979,7.082-2.934l0.13-0.13c3.911-3.911,3.911-10.253,0-14.165
	c-3.912-3.91-10.252-3.91-14.165,0l-0.13,0.13c-3.911,3.911-3.911,10.253,0,14.165C328.526,278.509,331.088,279.488,333.652,279.488
	z"/>
<path d="M235.406,353.552c-3.911,3.911-3.911,10.253,0,14.165l0.13,0.13c1.956,1.955,4.519,2.934,7.082,2.934
	c2.563,0,5.126-0.979,7.082-2.934c3.911-3.911,3.911-10.253,0-14.165l-0.13-0.13C245.658,349.642,239.318,349.642,235.406,353.552z"
	/>
<path d="M144.271,262.363l-0.13,0.129c-3.926,3.897-3.95,10.238-0.054,14.164c1.958,1.973,4.532,2.961,7.109,2.961
	c2.551,0,5.102-0.969,7.055-2.907l0.13-0.129c3.926-3.897,3.95-10.238,0.054-14.164S148.197,258.466,144.271,262.363z"/>
<path d="M242.488,188.325c2.538,0,5.078-0.959,7.029-2.881c3.941-3.882,3.988-10.223,0.106-14.164l-0.129-0.131
	c-3.882-3.943-10.225-3.988-14.164-0.106c-3.941,3.882-3.988,10.223-0.106,14.164l0.129,0.131
	C237.313,187.328,239.9,188.325,242.488,188.325z"/>
<path d="M307.187,323.919l-0.184-0.001c-5.519-0.052-10.039,4.432-10.069,9.963c-0.03,5.531,4.431,10.039,9.963,10.069l0.184,0.001
	c0.018,0,0.036,0,0.054,0c5.507,0,9.986-4.449,10.015-9.963C317.18,328.456,312.72,323.948,307.187,323.919z"/>
<path d="M178.027,344.133c5.531,0,10.016-4.485,10.016-10.016v-0.184c0-5.531-4.485-10.016-10.016-10.016
	c-5.531,0-10.016,4.485-10.016,10.016v0.184C168.011,339.648,172.496,344.133,178.027,344.133z"/>
<path d="M177.79,215.025l0.184,0.001c0.018,0,0.036,0,0.054,0c5.507,0,9.986-4.449,10.015-9.963
	c0.029-5.531-4.431-10.039-9.963-10.069l-0.184-0.001c-0.018,0-0.036,0-0.054,0c-5.507,0-9.986,4.449-10.015,9.963
	C167.797,210.487,172.257,214.996,177.79,215.025z"/>
<path d="M306.951,194.811c-5.531,0-10.016,4.485-10.016,10.016v0.184c0,5.531,4.485,10.016,10.016,10.016
	s10.016-4.485,10.016-10.016v-0.184C316.967,199.295,312.482,194.811,306.951,194.811z"/>
<path d="M422.953,311.785c-4.945,2.481-6.943,8.498-4.462,13.443l0.417,0.838c1.745,3.536,5.296,5.586,8.99,5.586
	c1.487,0,3-0.333,4.424-1.036c4.961-2.448,6.997-8.453,4.55-13.414l-0.476-0.956C433.915,311.302,427.898,309.305,422.953,311.785z"
	/>
<path d="M215.121,73.765l0.653-0.645c3.96-3.862,4.038-10.204,0.176-14.163c-3.86-3.958-10.203-4.038-14.163-0.176l-0.772,0.76
	c-3.927,3.896-3.953,10.237-0.059,14.165c1.958,1.974,4.534,2.963,7.112,2.963C210.618,76.669,213.168,75.702,215.121,73.765z"/>
<path d="M181.304,109.682c1.275,0.54,2.599,0.796,3.902,0.796c3.902,0,7.611-2.294,9.227-6.113l0.359-0.834
	c2.203-5.073-0.121-10.973-5.195-13.178c-5.073-2.201-10.972,0.121-13.178,5.195c-0.145,0.335-0.289,0.669-0.432,1.005
	C173.83,101.647,176.211,107.524,181.304,109.682z"/>
<path d="M142.672,389.182l-0.868,0.294c-5.246,1.754-8.077,7.429-6.323,12.674c1.401,4.194,5.307,6.843,9.497,6.843
	c1.053,0,2.123-0.167,3.177-0.52l1.027-0.349c5.231-1.798,8.015-7.496,6.217-12.727C153.601,390.168,147.9,387.383,142.672,389.182z
	"/>
<path d="M94.509,403.468c-0.372,5.519,3.8,10.294,9.32,10.667c0.372,0.024,0.743,0.048,1.115,0.068
	c0.189,0.011,0.379,0.016,0.567,0.016c5.276,0,9.693-4.125,9.992-9.457c0.309-5.523-3.918-10.25-9.442-10.559
	c-0.293-0.017-0.589-0.034-0.884-0.055C99.661,393.771,94.882,397.95,94.509,403.468z"/>
<g>
</g>
<g>
</g>
<g>
</g>
<g>
</g>
<g>
</g>
<g>
</g>
<g>
</g>
<g>
</g>
<g>
</g>
<g>
</g>
<g>
</g>
<g>
</g>
<g>
</g>
<g>
</g>
<g>
</g>
</svg>
