<svg height="512" viewBox="0 0 60 60" width="512" xmlns="http://www.w3.org/2000/svg"><g id="Page-1" fill="none" fill-rule="evenodd"><g id="025---Macro-Mode"><circle id="Oval" cx="30" cy="30" fill="#cfd8dc" fill-rule="nonzero" r="29"/><path id="Shape" d="m30 1c-.5033333 0-1.0033333.01266667-1.5.038 15.4192225.79012792 27.5158989 13.5225465 27.5158989 28.962s-12.0966764 28.1718721-27.5158989 28.962c.4973333.0253333.9973333.038 1.5.038 16.0162576-.0000002 28.9999996-12.9837424 28.9999996-29s-12.983742-28.99999976-28.9999996-29z" fill="#9e9e9e" fill-rule="nonzero"/><path id="Shape" d="m22.978 6c12.751073-3.73475493 26.1965504 3.15410267 30.6137735 15.68512 4.4172232 12.5310174-1.7362325 26.3285608-14.0106962 31.4153866-12.2744638 5.0868258-26.3838863-.3133055-32.12549874-12.2954649-5.74161243-11.9821593-1.11053421-26.3623657 10.54442144-32.7420417" stroke="#000" stroke-linecap="round" stroke-linejoin="round" stroke-width="2"/><g fill-rule="nonzero"><circle id="Oval" cx="30" cy="30" fill="#00bcd4" r="25"/><path id="Shape" d="m30 5c-.5 0-1 .019-1.5.049 13.1671239.83401357 23.4196519 11.7564891 23.4196519 24.95s-10.252528 24.1159864-23.4196519 24.95c.5.03 1 .049 1.5.049 13.7193264-.1227131 24.7763954-11.2791248 24.7763954-24.999s-11.057069-24.87628693-24.7763954-24.999z" fill="#00838f"/><path id="Shape" d="m36 20c0 6.08-6 11-6 11s-6-4.92-6-11c.0067811-1.0593963.1753935-2.1115373.5-3.12 1.137773-3.0493473 3.0300535-5.7604692 5.5-7.88 2.4699465 2.1195308 4.362227 4.8306527 5.5 7.88.3246065 1.0084627.4932189 2.0606037.5 3.12z" fill="#ffeb3a"/><path id="Shape" d="m35.5 16.88c-1.137773-3.0493473-3.0300535-5.7604692-5.5-7.88-.5272177.45223574-1.0280415.93436207-1.5 1.444 1.7823147 1.8314173 3.1469165 4.0270617 4 6.436.3246065 1.0084627.4932189 2.0606037.5 3.12 0 4.1-2.723 7.663-4.5 9.556.472289.5093136.9730938.9914217 1.5 1.444 0 0 6-4.92 6-11-.0067811-1.0593963-.1753935-2.1115373-.5-3.12z" fill="#fdd834"/><path id="Shape" d="m30.01 50.96c-.0050662.0128393-.0084282.0262871-.01.04 0 0-6.71-.21-10.26-4.44s-2.61-10.87-2.61-10.87 6.71.21 10.26 4.44c.2208825.2633302.4246347.5405668.61.83.9851741 1.5245045 1.6298405 3.2436151 1.89 5.04.05.32.09.63.12.93-.1415557 1.3396042-.1415557 2.6903958 0 4.03z" fill="#008a00"/><path id="Shape" d="m30.01 46.93c-.03-.3-.07-.61-.12-.93-.2601595-1.7963849-.9048259-3.5154955-1.89-5.04-.1853653-.2894332-.3891175-.5666698-.61-.83-3.55-4.23-10.26-4.44-10.26-4.44s-.021.161-.045.425c2.8015752.5230713 5.3617774 1.9302187 7.305 4.015.2208825.2633302.4246347.5405668.61.83.9851741 1.5245045 1.6298405 3.2436151 1.89 5.04.05.32.09.63.12.93-.1248869 1.206198-.1382769 2.4213429-.04 3.63.9951581.2351568 2.0090595.38239 3.03.44.0015718-.0137129.0049338-.0271607.01-.04-.1415557-1.3396042-.1415557-2.6903958 0-4.03z" fill="#007900"/><path id="Shape" d="m40.28 46.56c-3.55 4.23-10.26 4.44-10.26 4.44-.0015718-.0137129-.0049338-.0271607-.01-.04-.1415557-1.3396042-.1415557-2.6903958 0-4.03.1791997-2.1168018.8614665-4.1601737 1.99-5.96.1887336-.292803.3958144-.5733641.62-.84 3.56-4.23 10.27-4.44 10.27-4.44s.94 6.64-2.61 10.87z" fill="#008a00"/><path id="Shape" d="m42.89 35.69c-.9952969.0573435-1.9838842.1995261-2.955.425.135 1.509.368 6.843-2.655 10.445-1.9440035 2.0855379-4.5052962 3.4930572-7.308 4.016.016.188.031.326.038.384.0050662.0128393.0084282.0262871.01.04 0 0 6.71-.21 10.26-4.44s2.61-10.87 2.61-10.87z" fill="#007900"/><path id="Shape" d="m41.85 26.95c-2.79 3.05-7.28 3.82-9.85 4.01-.6655012.0484561-1.3330935.061808-2 .04 0 0 6-4.92 6-11-.0067811-1.0593963-.1753935-2.1115373-.5-3.12 2.8961387-1.4783821 6.1201266-2.1975 9.37-2.09 0 0 1.09 7.68-3.02 12.16z" fill="#ef314c"/><path id="Shape" d="m44.87 14.79c-.9963443-.0304901-1.9935636.0149748-2.983.136.118 1.006.766 7.879-3.037 12.024-2.4 2.623-6.05 3.555-8.661 3.887-.113.099-.189.163-.189.163.6669065.021808 1.3344988.0084561 2-.04 2.57-.19 7.06-.96 9.85-4.01 4.11-4.48 3.02-12.16 3.02-12.16z" fill="#bb193b"/><path id="Shape" d="m30 31c-.6669065.021808-1.3344988.0084561-2-.04-2.57-.19-7.06-.96-9.86-4.01-4.1-4.48-3.01-12.16-3.01-12.16 3.2498734-.1075 6.4738613.6116179 9.37 2.09-.3246065 1.0084627-.4932189 2.0606037-.5 3.12 0 6.08 6 11 6 11z" fill="#ef314c"/><path id="Shape" d="m32 30.96v10.01c-1.1285335 1.7998263-1.8108003 3.8431982-1.99 5.96-.03-.3-.07-.61-.12-.93-.2601595-1.7963849-.9048259-3.5154955-1.89-5.04v-10c.6655012.0484561 1.3330935.061808 2 .04.6669065.021808 1.3344988.0084561 2-.04z" fill="#007900"/><path id="Shape" d="m30 0c-16.5685425 0-30 13.4314575-30 30s13.4314575 30 30 30 30-13.4314575 30-30c-.018737-16.5607751-13.4392249-29.98126296-30-30zm0 58c-15.463973 0-28-12.536027-28-28s12.536027-28 28-28 28 12.536027 28 28c-.0176345 15.4566626-12.5433374 27.9823655-28 28z" fill="#000"/><path id="Shape" d="m30 4c-2.4703459-.00135419-4.9283162.34882241-7.3 1.04-.3514198.09286243-.6247779.3690976-.7139561.72147035s.0198686.7253866.2848081.97423667.6440455.33434406.990148.22329298c12.2429058-3.58465929 25.1515812 3.03057982 29.391695 15.0622031 4.2401138 12.0316232-1.6688805 25.2784747-13.4541581 30.1616864-11.7852775 4.8832116-25.3317005-.3023176-30.84377905-11.8069043-5.51207854-11.5045866-1.06512629-25.3111033 10.12524215-31.4359852.3216365-.16707125.5276965-.49509784.5385861-.85737429.0108897-.36227645-.1750958-.70208752-.4861167-.88817578-.3110208-.18608826-.698386-.18932116-1.0124694-.00844993-11.50253592 6.2866078-16.52851928 20.1511319-11.72646358 32.348264 4.80205568 12.1971321 17.93100558 18.9139922 30.63204588 15.6715632s21.003767-15.4305489 19.3716562-28.4369314-12.6888535-22.76517212-25.7972385-22.7688958z" fill="#000"/><path id="Shape" d="m42.587 27.626c4.379-4.773 3.32-12.644 3.273-12.977-.06747-.4720575-.4588655-.8308017-.935-.857-3.0467697-.0961985-6.0773967.4790642-8.877 1.685-1.2479325-2.7863516-3.0967639-5.2621601-5.414-7.25-.3686415-.30222261-.8993585-.30222261-1.268 0-2.3172361 1.9878399-4.1660675 4.4636484-5.414 7.25-2.7996225-1.205873-5.8302354-1.7811329-8.877-1.685-.4761345.0261983-.86753.3849425-.935.857-.047.333-1.106 8.2 3.263 12.977 2.72 2.965 6.806 3.938 9.6 4.247v6.455c-3.89-3.4-9.574-3.629-9.839-3.638-.5043939-.0022585-.9363678.3607519-1.021.858-.041.289-.97 7.136 2.834 11.655s10.7 4.787 11 4.8h.023.008.009.031c.292-.01 7.2-.276 11-4.794s2.873-11.368 2.832-11.657c-.071674-.5051098-.5120903-.8752836-1.022-.859-.264.009-5.961.24-9.854 3.649v-6.469c2.786-.31 6.87-1.283 9.583-4.247zm1.371-11.842c.132 2.036.133 7.244-2.846 10.491-2.347 2.564-6.1 3.376-8.568 3.627 1.878-2.078 4.456-5.691 4.456-9.902-.0053356-.8746018-.1151131-1.7454361-.327-2.594 2.2918614-1.0331629 4.7712974-1.5852075 7.285-1.622zm-13.958-5.435c1.475 1.412 5 5.251 5 9.651s-3.528 8.236-5 9.651c-1.475-1.412-5-5.251-5-9.651s3.528-8.236 5-9.651zm-13.957 5.434c2.5137554.0345114 4.9933898.5870164 7.284 1.623-.2119527.8485516-.3217312 1.7193938-.327 2.594 0 4.213 2.581 7.828 4.459 9.905-2.47-.247-6.22-1.056-8.581-3.63-2.962-3.237-2.964-8.454-2.835-10.492zm4.462 30.133c-2.466-2.931-2.559-7.25-2.463-9.141 1.88.231 6.12 1.064 8.572 3.986.202521.2407786.3889263.494664.558.76.9052904 1.4008697 1.495559 2.9816297 1.73 4.633.041.264.072.519.1.77-.0991947.9863813-.1259331 1.9787082-.08 2.969-1.954-.259-6.022-1.127-8.417-3.977zm21.469-9.141c.1 1.892 0 6.214-2.461 9.143s-6.7 3.766-8.584 4c-.095-1.893 0-6.214 2.46-9.144s6.704-3.768 8.585-3.999zm-10.974 3.91c-.3915615.6280034-.7243069 1.2908162-.994 1.98-.2722198-.6895764-.6090531-1.3518591-1.006-1.978v-8.679h.4c.3 0 .5-.007.6-.012s.3.012.6.012h.4z" fill="#000"/></g></g></g></svg>