<svg height="480pt" viewBox="0 -72 480 480" width="480pt" xmlns="http://www.w3.org/2000/svg"><path d="m408 200h32v96h-96v-32h64zm0 0" fill="#9bc9ff"/><path d="m40 40h96v32h-64v64h-32zm0 0" fill="#9bc9ff"/><g fill="#1e81ce"><path d="m472 336h-464c-4.417969 0-8-3.582031-8-8v-320c0-4.417969 3.582031-8 8-8h464c4.417969 0 8 3.582031 8 8v320c0 4.417969-3.582031 8-8 8zm-456-16h448v-304h-448zm0 0"/><path d="m80 144h-48v-112h112v48h-64zm-32-16h16v-64h64v-16h-80zm0 0"/><path d="m448 304h-112v-48h64v-64h48zm-96-16h80v-80h-16v64h-64zm0 0"/></g></svg>