<svg height="512pt" viewBox="0 0 512 512" width="512pt" xmlns="http://www.w3.org/2000/svg">
    <path d="m505.53125 317.980469-157.964844-109.253907c3.460938-4.519531 4.070313-10.609374 1.5625-15.726562-2.519531-5.140625-7.742187-8.398438-13.46875-8.398438h-22.972656l-9.066406-6.265624v-45.542969h32.039062c5.726563 0 10.949219-3.257813 13.46875-8.398438 2.519532-5.136719 1.894532-11.265625-1.609375-15.789062l-79.664062-102.792969c-2.839844-3.667969-7.21875-5.8125-11.855469-5.8125s-9.015625 2.144531-11.855469 5.8125l-79.664062 102.792969c-3.503907 4.523437-4.128907 10.648437-1.609375 15.789062 2.519531 5.140625 7.742187 8.398438 13.46875 8.398438h32.039062v45.542969l-9.066406 6.265624h-22.972656c-5.726563 0-10.949219 3.257813-13.46875 8.398438-2.507813 5.117188-1.898438 11.207031 1.5625 15.726562l-157.964844 109.253907c-4.050781 2.800781-6.46875 7.414062-6.46875 12.335937 0 4.925782 2.417969 9.535156 6.46875 12.335938l241 166.683594c2.566406 1.777343 5.546875 2.664062 8.53125 2.664062s5.964844-.886719 8.53125-2.664062l241-166.683594c4.050781-2.800782 6.46875-7.410156 6.46875-12.335938 0-4.925781-2.417969-9.535156-6.46875-12.335937zm-170.957031 106.433593-52.203125-36.105468 57.476562-39.753906 52.207032 36.105468zm-78.574219-54.34375-57.476562-39.753906 39.152343-27.078125 6.46875 8.347657c2.839844 3.664062 7.21875 5.808593 11.855469 5.808593s9.015625-2.144531 11.855469-5.808593l6.46875-8.347657 39.152343 27.078125zm-136.054688 14.59375 52.207032-36.109374 57.476562 39.753906-52.203125 36.109375zm103.433594-170.0625c8.28125 0 15-6.714843 15-15v-81.808593c0-8.28125-6.71875-15-15-15h-16.4375l49.058594-63.304688 49.058594 63.304688h-16.4375c-8.28125 0-15 6.71875-15 15v81.808593c0 8.285157 6.71875 15 15 15h16.4375l-49.058594 63.304688-49.058594-63.304688zm-45.953125 21.617188 17.914063 12.390625 23.929687 30.878906-47.117187 32.589844-52.207032-36.105469zm115.304688 43.269531 23.929687-30.878906 17.914063-12.390625 57.480469 39.753906-52.207032 36.105469zm-199.15625 14.722657 52.207031 36.105468-52.207031 36.109375-52.203125-36.109375zm162.425781 184.550781-52.207031-36.105469 52.207031-36.109375 52.207031 36.109375zm162.425781-112.335938-52.207031-36.109375 52.207031-36.105468 52.203125 36.105468zm0 0"/>
</svg>
